<svg xmlns="http://www.w3.org/2000/svg" xmlns:xlink="http://www.w3.org/1999/xlink" width="24" height="24" viewBox="0 0 24 24">
  <defs>
    <clipPath id="clip-Icon-instagram">
      <rect width="24" height="24"/>
    </clipPath>
  </defs>
  <g id="Icon-instagram" clip-path="url(#clip-Icon-instagram)">
    <g id="Gruppe_3047" data-name="Gruppe 3047" fill="#fff">
      <rect id="Rechteck_1" data-name="Rechteck 1" width="24" height="24" fill="none"/>
      <g id="_002-instagram-logo" data-name="002-instagram-logo" transform="translate(3 3.375)">
        <path id="Fill_1" data-name="Fill 1" d="M13.349,18.494H5.088A5.1,5.1,0,0,1,0,13.39V5.1A5.1,5.1,0,0,1,5.088,0h8.261a5.1,5.1,0,0,1,5.088,5.1V13.39A5.1,5.1,0,0,1,13.349,18.494ZM5.088,1.641A3.461,3.461,0,0,0,1.636,5.1V13.39a3.461,3.461,0,0,0,3.452,3.463h8.261A3.461,3.461,0,0,0,16.8,13.39V5.1a3.461,3.461,0,0,0-3.452-3.463Z" transform="translate(0 0)"/>
        <path id="Fill_2" data-name="Fill 2" d="M4.711,9.452A4.726,4.726,0,1,1,9.422,4.726,4.724,4.724,0,0,1,4.711,9.452Zm0-7.825A3.1,3.1,0,1,0,7.8,4.726,3.1,3.1,0,0,0,4.711,1.627Z" transform="translate(4.507 4.521)"/>
        <path id="Fill_3" data-name="Fill 3" d="M1.229,0A1.233,1.233,0,1,0,2.1,2.1,1.237,1.237,0,0,0,2.1.361,1.234,1.234,0,0,0,1.229,0Z" transform="translate(12.905 3.082)"/>
      </g>
    </g>
  </g>
</svg>
