<svg xmlns="http://www.w3.org/2000/svg" xmlns:xlink="http://www.w3.org/1999/xlink" width="168" height="102" viewBox="0 0 168 102">
  <defs>
    <clipPath id="clip-path">
      <path id="Pfad_106" data-name="Pfad 106" d="M0,26.342H167.708V-74.731H0Z" transform="translate(0 74.731)"/>
    </clipPath>
    <clipPath id="clip-Logo-HSLU">
      <rect width="168" height="102"/>
    </clipPath>
  </defs>
  <g id="Logo-HSLU" clip-path="url(#clip-Logo-HSLU)">
    <rect width="168" height="102" fill="#fff"/>
    <g id="Logo_HSLU" data-name="Logo HSLU">
      <g id="Gruppe_207" data-name="Gruppe 207" transform="translate(0 58.972)">
        <path id="Pfad_101" data-name="Pfad 101" d="M0,0V16.774H11.305V13.745H3.178V0Z"/>
      </g>
      <g id="Gruppe_212" data-name="Gruppe 212" transform="translate(0)" clip-path="url(#clip-path)">
        <g id="Gruppe_208" data-name="Gruppe 208" transform="translate(14.464 58.972)">
          <path id="Pfad_102" data-name="Pfad 102" d="M2.507,3.226a.4.4,0,0,1-.12.28l-.97.968a.354.354,0,0,1-.28.12h-3.7a.353.353,0,0,1-.279-.12l-.97-.968a.4.4,0,0,1-.12-.28V-9.151H-7.113V3.723a1.8,1.8,0,0,0,.552,1.312l2.038,2.038a1.8,1.8,0,0,0,1.311.549h5A1.8,1.8,0,0,0,3.1,7.073L5.134,5.035a1.8,1.8,0,0,0,.552-1.312V-9.151H2.507Z" transform="translate(7.113 9.151)"/>
        </g>
        <g id="Gruppe_209" data-name="Gruppe 209" transform="translate(85.372 58.972)">
          <path id="Pfad_103" data-name="Pfad 103" d="M2.527,0V12.471C2.178,11.649-2.779,0-2.779,0H-7.168V16.774h3.1V4.3c.349.821,5.307,12.47,5.307,12.47H5.629V0Z" transform="translate(7.168 0)"/>
        </g>
        <g id="Gruppe_210" data-name="Gruppe 210" transform="translate(31.511 58.972)">
          <path id="Pfad_104" data-name="Pfad 104" d="M.891,3.093s8.3-4.732,8.3-4.732a1.943,1.943,0,0,0,1.078-1.681V-8.774H-2.117v3.03h9.21v1.522a.439.439,0,0,1-.239.358L-1.45.894A1.943,1.943,0,0,0-2.527,2.572V8h12.8V4.971H.651V3.451a.433.433,0,0,1,.239-.358" transform="translate(2.527 8.774)"/>
        </g>
        <g id="Gruppe_211" data-name="Gruppe 211" transform="translate(65.343 58.972)">
          <path id="Pfad_105" data-name="Pfad 105" d="M3.58,3.582.833.074h.395A1.728,1.728,0,0,0,2.49-.451L4.131-2.091A1.777,1.777,0,0,0,4.681-3.4V-6.684A1.775,1.775,0,0,0,4.131-8L2.49-9.637a1.729,1.729,0,0,0-1.262-.526H-10.157v3.028h2.041V6.611h3.178V.074h1.716a.394.394,0,0,1,.342.18c0,.007,4.93,6.357,4.93,6.357H5.622V3.582ZM-4.938-2.954V-7.135h5.5a.35.35,0,0,1,.279.122l.548.545a.362.362,0,0,1,.12.28V-3.9a.353.353,0,0,1-.12.279l-.548.548a.357.357,0,0,1-.279.12Z" transform="translate(10.157 10.163)"/>
        </g>
      </g>
      <g id="Gruppe_213" data-name="Gruppe 213" transform="translate(48.334 58.947)">
        <path id="Pfad_107" data-name="Pfad 107" d="M3.479.79V-2.24H-9.869V.79h2.042V14.535H3.479V11.507H-4.648V7.649H1.436V4.621H-4.648V.79Z" transform="translate(9.869 2.24)"/>
      </g>
      <g id="Gruppe_214" data-name="Gruppe 214" transform="translate(0 33.811)">
        <path id="Pfad_108" data-name="Pfad 108" d="M2.507,0V6.861H-3.934V0H-7.112V16.775h3.178V9.889H2.507v6.886H5.685V0Z" transform="translate(7.112)"/>
      </g>
      <g id="Gruppe_217" data-name="Gruppe 217" transform="translate(0)" clip-path="url(#clip-path)">
        <g id="Gruppe_215" data-name="Gruppe 215" transform="translate(17.774 33.811)">
          <path id="Pfad_109" data-name="Pfad 109" d="M3.58.675,1.542-1.364A1.8,1.8,0,0,0,.23-1.914H-6.258a1.8,1.8,0,0,0-1.312.55L-9.607.675a1.8,1.8,0,0,0-.55,1.312V10.96a1.792,1.792,0,0,0,.55,1.311l2.037,2.038a1.8,1.8,0,0,0,1.312.55H.23a1.793,1.793,0,0,0,1.312-.55L3.58,12.271a1.8,1.8,0,0,0,.55-1.311V1.987A1.8,1.8,0,0,0,3.58.675M.952,2.483v7.98a.393.393,0,0,1-.119.279l-.97.97a.354.354,0,0,1-.28.12H-5.611a.353.353,0,0,1-.279-.12l-.97-.97a.394.394,0,0,1-.12-.279V2.483A.4.4,0,0,1-6.86,2.2l.97-.97a.353.353,0,0,1,.279-.12H-.416a.354.354,0,0,1,.28.12l.97.97a.4.4,0,0,1,.119.279" transform="translate(10.157 1.914)"/>
        </g>
        <g id="Gruppe_216" data-name="Gruppe 216" transform="translate(36.311 33.811)">
          <path id="Pfad_110" data-name="Pfad 110" d="M2.327,3.551a.354.354,0,0,1-.28.12h-4.1a.353.353,0,0,1-.279-.12l-.97-.97a.394.394,0,0,1-.12-.279v-7.98a.4.4,0,0,1,.12-.279l.97-.97a.353.353,0,0,1,.279-.12h4.1a.354.354,0,0,1,.28.12l1.758,1.76L6.238-7.292,4.005-9.524a1.8,1.8,0,0,0-1.311-.55H-2.7a1.8,1.8,0,0,0-1.312.55l-2.04,2.038A1.8,1.8,0,0,0-6.6-6.173V2.8a1.8,1.8,0,0,0,.55,1.312l2.04,2.038A1.8,1.8,0,0,0-2.7,6.7H2.695a1.8,1.8,0,0,0,1.311-.55L6.238,3.917,4.085,1.793Z" transform="translate(6.601 10.074)"/>
        </g>
      </g>
      <g id="Gruppe_218" data-name="Gruppe 218" transform="translate(53.037 33.811)">
        <path id="Pfad_112" data-name="Pfad 112" d="M2.507,0V6.861H-3.935V0H-7.112V16.774h3.177V9.889H2.507v6.884H5.685V0Z" transform="translate(7.112)"/>
      </g>
      <g id="Gruppe_220" data-name="Gruppe 220" transform="translate(0)" clip-path="url(#clip-path)">
        <g id="Gruppe_219" data-name="Gruppe 219" transform="translate(88.211 33.811)">
          <path id="Pfad_113" data-name="Pfad 113" d="M2.327,3.551a.352.352,0,0,1-.28.12h-4.1a.353.353,0,0,1-.279-.12l-.97-.97a.389.389,0,0,1-.12-.279v-7.98a.393.393,0,0,1,.12-.279l.97-.97a.353.353,0,0,1,.279-.12h4.1a.355.355,0,0,1,.28.12l1.758,1.76L6.237-7.292,4.005-9.524a1.8,1.8,0,0,0-1.311-.55H-2.7a1.8,1.8,0,0,0-1.313.55L-6.051-7.485A1.8,1.8,0,0,0-6.6-6.173V2.8a1.8,1.8,0,0,0,.55,1.312l2.038,2.038A1.8,1.8,0,0,0-2.7,6.7H2.695a1.8,1.8,0,0,0,1.311-.55L6.237,3.917,4.085,1.793Z" transform="translate(6.601 10.074)"/>
        </g>
      </g>
      <g id="Gruppe_221" data-name="Gruppe 221" transform="translate(104.936 33.811)">
        <path id="Pfad_115" data-name="Pfad 115" d="M2.507,0V6.861H-3.935V0H-7.113V16.774h3.178V9.889H2.507v6.884H5.686V0Z" transform="translate(7.113)"/>
      </g>
      <g id="Gruppe_223" data-name="Gruppe 223" transform="translate(0)" clip-path="url(#clip-path)">
        <g id="Gruppe_222" data-name="Gruppe 222" transform="translate(123.072 33.811)">
          <path id="Pfad_116" data-name="Pfad 116" d="M2.508,0V12.377a.394.394,0,0,1-.12.279l-.97.97a.359.359,0,0,1-.28.122h-3.7a.356.356,0,0,1-.279-.122l-.97-.97a.394.394,0,0,1-.12-.279V0H-7.114V12.874a1.8,1.8,0,0,0,.552,1.312l2.037,2.038a1.8,1.8,0,0,0,1.312.549h5A1.8,1.8,0,0,0,3.1,16.224l2.038-2.038a1.806,1.806,0,0,0,.55-1.312V0Z" transform="translate(7.114)"/>
        </g>
      </g>
      <g id="Gruppe_224" data-name="Gruppe 224" transform="translate(141.211 33.81)">
        <path id="Pfad_118" data-name="Pfad 118" d="M.828,3.583V-10.164H-2.349V6.611H8.956V3.583Z" transform="translate(2.349 10.164)"/>
      </g>
      <g id="Gruppe_226" data-name="Gruppe 226" transform="translate(0)" clip-path="url(#clip-path)">
        <g id="Gruppe_225" data-name="Gruppe 225" transform="translate(69.998 33.811)">
          <path id="Pfad_119" data-name="Pfad 119" d="M3.265,1.976-5.275.783a.412.412,0,0,1-.362-.4V-1.208a.4.4,0,0,1,.12-.28l.97-.97a.358.358,0,0,1,.28-.12H.517a.357.357,0,0,1,.279.12L2.531-.722,4.655-2.874,2.475-5.056a1.8,1.8,0,0,0-1.312-.55H-4.913a1.8,1.8,0,0,0-1.312.55L-8.264-3.017a1.8,1.8,0,0,0-.55,1.312V1.551a2.109,2.109,0,0,0,1.8,2.035L1.5,4.78a.435.435,0,0,1,.388.4V6.771a.393.393,0,0,1-.122.279L.8,8.019a.355.355,0,0,1-.28.122H-5.124A.354.354,0,0,1-5.4,8.019L-7.138,6.285-9.263,8.437l2.182,2.182a1.8,1.8,0,0,0,1.311.55H1.165a1.8,1.8,0,0,0,1.312-.55l2.038-2.04a1.856,1.856,0,0,0,.55-1.312V4.012a2.088,2.088,0,0,0-1.8-2.035" transform="translate(9.263 5.606)"/>
        </g>
      </g>
      <g id="Gruppe_227" data-name="Gruppe 227" transform="translate(154.361 33.811)">
        <path id="Pfad_121" data-name="Pfad 121" d="M0,0V3.028H2.04V16.775H13.348V13.747H5.219V9.889h6.086V6.861H5.219V3.028h8.128V0Z"/>
      </g>
      <g id="Gruppe_231" data-name="Gruppe 231" transform="translate(0)" clip-path="url(#clip-path)">
        <g id="Gruppe_228" data-name="Gruppe 228" transform="translate(0.75 -0.001)">
          <path id="Pfad_122" data-name="Pfad 122" d="M.933,1.81v-.4c0-.118-.05-.157-.188-.157H-1.73V-4.611c0-.147-.058-.207-.2-.207H-2.46c-.128,0-.187.078-.187.207V1.761c0,.157.069.216.2.216H.765c.118,0,.168-.039.168-.168m5.088-.049v-4.35c0-.138-.058-.2-.187-.2H5.371c-.127,0-.187.06-.187.2V.775a2.194,2.194,0,0,1-1.3.582c-.79,0-.948-.494-.948-1.194V-2.589a.173.173,0,0,0-.2-.2H2.294a.173.173,0,0,0-.2.2V.291c0,1.055.414,1.785,1.549,1.785A2.381,2.381,0,0,0,5.2,1.485l.011.306a.17.17,0,0,0,.187.187h.425c.138,0,.2-.069.2-.216m5.13-.1a.516.516,0,0,0-.02-.108l-.089-.277c-.019-.068-.049-.1-.1-.1a.335.335,0,0,0-.078.02,2.719,2.719,0,0,1-1.1.237C8.7,1.435,8.27.567,8.27-.44c0-1.1.592-1.8,1.528-1.8A2.438,2.438,0,0,1,10.825-2a.193.193,0,0,0,.089.028c.058,0,.088-.049.108-.118L11.1-2.4a.248.248,0,0,0,.02-.08.134.134,0,0,0-.1-.128,2.975,2.975,0,0,0-1.263-.285A2.284,2.284,0,0,0,7.4-.4,2.182,2.182,0,0,0,9.7,2.076a3.156,3.156,0,0,0,1.331-.285c.089-.041.119-.07.119-.128m5.1-2.219V-.725a2.274,2.274,0,0,0-.563-1.627,1.818,1.818,0,0,0-1.342-.542,2.284,2.284,0,0,0-2.3,2.485,2.216,2.216,0,0,0,2.328,2.486,4.005,4.005,0,0,0,1.509-.285c.078-.041.118-.07.118-.128a.116.116,0,0,0-.009-.05l-.108-.364a.113.113,0,0,0-.119-.089.461.461,0,0,0-.1.019,3.451,3.451,0,0,1-1.183.208A1.543,1.543,0,0,1,12.926-.281h3.028c.256,0,.3-.049.3-.276m-.829-.3H12.946a1.409,1.409,0,0,1,1.361-1.39A1.12,1.12,0,0,1,15.421-.991ZM19.908-2.7v-.05c0-.06-.02-.108-.08-.118a1.586,1.586,0,0,0-.285-.03,1.4,1.4,0,0,0-1.135.621L18.4-2.609c0-.127-.069-.177-.2-.177h-.423c-.119,0-.187.05-.187.2V1.77c0,.138.058.207.187.207h.463c.128,0,.188-.078.188-.207V-1.593a1.292,1.292,0,0,1,.986-.591,1.313,1.313,0,0,1,.287.03h.03a.1.1,0,0,0,.108-.1ZM25.047,1.77v-2.9c0-1.075-.434-1.765-1.568-1.765a2.537,2.537,0,0,0-1.618.591l-.011-.306c0-.127-.068-.177-.187-.177H21.23c-.138,0-.187.06-.187.2V1.78a.174.174,0,0,0,.187.2h.464c.128,0,.187-.069.187-.207V-1.623A2.25,2.25,0,0,1,23.242-2.2c.788,0,.966.5.966,1.2V1.77c0,.138.06.207.188.207h.464c.138,0,.187-.069.187-.207m5.6-2.328V-.725a2.274,2.274,0,0,0-.563-1.627,1.815,1.815,0,0,0-1.34-.542,2.285,2.285,0,0,0-2.3,2.485,2.217,2.217,0,0,0,2.329,2.486,4,4,0,0,0,1.508-.285c.078-.041.119-.07.119-.128a.1.1,0,0,0-.011-.05l-.108-.364a.111.111,0,0,0-.118-.089.447.447,0,0,0-.1.019,3.457,3.457,0,0,1-1.183.208A1.542,1.542,0,0,1,27.325-.281h3.027c.257,0,.3-.049.3-.276m-.828-.3H27.344a1.409,1.409,0,0,1,1.361-1.39A1.12,1.12,0,0,1,29.821-.991ZM40.127-.991V-4.62c0-.128-.05-.2-.188-.2h-.532a.177.177,0,0,0-.2.2v3.47c0,1.273-.2,2.456-1.776,2.456-1.637,0-1.806-1.124-1.806-2.445V-4.62c0-.128-.049-.2-.187-.2H34.9c-.128,0-.188.069-.188.2v3.569c0,1.923.572,3.127,2.713,3.127,1.952,0,2.7-1.262,2.7-3.067m5.74,2.762v-2.9c0-1.075-.434-1.765-1.569-1.765a2.533,2.533,0,0,0-1.616.591l-.011-.306c0-.127-.069-.177-.187-.177H42.05c-.138,0-.188.06-.188.2V1.78a.174.174,0,0,0,.188.2h.464c.127,0,.187-.069.187-.207V-1.623A2.246,2.246,0,0,1,44.061-2.2c.79,0,.967.5.967,1.2V1.77c0,.138.06.207.187.207h.464c.138,0,.188-.069.188-.207m2.682-5.721a.488.488,0,0,0-.513-.472.48.48,0,0,0-.5.472.481.481,0,0,0,.5.475.5.5,0,0,0,.513-.475M48.461,1.77V-2.589c0-.138-.06-.2-.188-.2H47.82a.173.173,0,0,0-.2.2V1.77a.18.18,0,0,0,.2.207h.453c.128,0,.188-.069.188-.207M53.9-2.687c0-.069-.05-.1-.158-.1h-.454c-.137,0-.207.039-.246.158L52.149.054c-.119.356-.237.74-.3.947h-.009c-.069-.226-.188-.582-.316-.976L50.64-2.648c-.03-.1-.088-.138-.237-.138h-.542c-.1,0-.147.039-.147.108a.171.171,0,0,0,.009.069L51.34,1.82a.219.219,0,0,0,.237.157h.434a.217.217,0,0,0,.226-.157l1.638-4.429a.32.32,0,0,0,.02-.078m5.1,2.13V-.725a2.274,2.274,0,0,0-.563-1.627,1.818,1.818,0,0,0-1.342-.542,2.284,2.284,0,0,0-2.3,2.485,2.216,2.216,0,0,0,2.328,2.486,4.005,4.005,0,0,0,1.509-.285c.078-.041.118-.07.118-.128a.116.116,0,0,0-.009-.05l-.108-.364a.113.113,0,0,0-.119-.089.423.423,0,0,0-.1.019,3.465,3.465,0,0,1-1.185.208A1.543,1.543,0,0,1,55.67-.281H58.7c.256,0,.3-.049.3-.276m-.829-.3H55.688a1.411,1.411,0,0,1,1.362-1.39A1.12,1.12,0,0,1,58.165-.991ZM62.652-2.7v-.05c0-.06-.019-.108-.08-.118a1.586,1.586,0,0,0-.285-.03,1.39,1.39,0,0,0-1.133.621l-.011-.335c0-.127-.069-.177-.2-.177h-.425c-.118,0-.187.05-.187.2V1.77c0,.138.06.207.187.207h.464c.128,0,.188-.078.188-.207V-1.593a1.294,1.294,0,0,1,.986-.591,1.313,1.313,0,0,1,.287.03h.03a.1.1,0,0,0,.108-.1ZM66.7.606A1.377,1.377,0,0,0,65.71-.645l-.77-.326c-.414-.179-.611-.335-.611-.671s.285-.611.809-.611a2.934,2.934,0,0,1,1.035.237.328.328,0,0,0,.08.02c.049,0,.088-.031.108-.1l.108-.346a.322.322,0,0,0,.019-.078c0-.039-.028-.069-.088-.1a2.925,2.925,0,0,0-1.282-.276c-.868,0-1.657.444-1.657,1.312A1.355,1.355,0,0,0,64.477-.341l.661.257c.453.177.738.384.738.77,0,.463-.384.74-.956.74a3.365,3.365,0,0,1-1.174-.3.128.128,0,0,0-.058-.009c-.05,0-.089.039-.11.1l-.128.354a.128.128,0,0,0-.009.06.143.143,0,0,0,.1.128,3.512,3.512,0,0,0,1.351.315c1.045,0,1.806-.561,1.806-1.47m2.317-4.557a.488.488,0,0,0-.513-.472.48.48,0,0,0-.5.472.481.481,0,0,0,.5.475.5.5,0,0,0,.513-.475M68.925,1.77V-2.589c0-.138-.06-.2-.188-.2h-.453a.173.173,0,0,0-.2.2V1.77a.18.18,0,0,0,.2.207h.453c.128,0,.188-.069.188-.207m4.408-.03c0-.009-.009-.02-.009-.039l-.078-.315a.122.122,0,0,0-.119-.1.134.134,0,0,0-.06.009,2.182,2.182,0,0,1-.621.119.708.708,0,0,1-.542-.2,1.122,1.122,0,0,1-.168-.749V-2.2h1.154c.1,0,.147-.028.147-.127v-.335c0-.11-.049-.128-.138-.128H71.736V-4c0-.108-.049-.177-.149-.177h-.039l-.483.069c-.127.019-.168.06-.168.2v1.124h-.561c-.089,0-.128.039-.128.138v.306c0,.128.019.147.147.147H70.9V.39A1.818,1.818,0,0,0,71.2,1.711a1.494,1.494,0,0,0,1.075.365A2.48,2.48,0,0,0,73.2,1.9c.08-.03.138-.078.138-.158m5.158-4.428c0-.06-.039-.1-.127-.1h-.544a.186.186,0,0,0-.207.147L76.371,1.031,75.089-2.658a.173.173,0,0,0-.187-.128h-.651c-.08,0-.11.039-.11.1a.154.154,0,0,0,.011.069l1.765,4.674-.257.633a1.033,1.033,0,0,1-1.074.729c-.1,0-.238-.02-.346-.03H74.2a.131.131,0,0,0-.147.138L74,3.9v.05a.13.13,0,0,0,.108.147,2.25,2.25,0,0,0,.445.039c1.064,0,1.558-.414,1.991-1.577L78.472-2.6a.284.284,0,0,0,.019-.088M86.4-.41c0-1.43-.69-2.485-2.219-2.485A2.237,2.237,0,0,0,81.913-.419c0,1.411.682,2.5,2.21,2.5A2.251,2.251,0,0,0,86.4-.41M85.534-.4c0,.917-.367,1.825-1.4,1.825S82.782.469,82.782-.44c0-.867.326-1.8,1.392-1.8,1.024,0,1.361.926,1.361,1.845m5.129-4.419c0-.06-.02-.108-.119-.149a2.637,2.637,0,0,0-.9-.168,1.444,1.444,0,0,0-1.557,1.371,6.592,6.592,0,0,0-.041.79v.187h-.572c-.1,0-.138.039-.138.138v.306c0,.128.019.147.128.147h.582V1.77c0,.138.06.207.188.207H88.7c.137,0,.187-.078.187-.216V-2.2h1.223c.1,0,.139-.039.139-.138v-.334c0-.1-.05-.119-.149-.119H88.887V-3.25c0-.768.188-1.212.859-1.212a2.05,2.05,0,0,1,.651.127.305.305,0,0,0,.088.02c.05,0,.078-.03.1-.1l.069-.306a.384.384,0,0,0,.009-.1" transform="translate(2.647 5.134)"/>
        </g>
        <g id="Gruppe_229" data-name="Gruppe 229" transform="translate(0.079 12.679)">
          <path id="Pfad_123" data-name="Pfad 123" d="M1.519,1.8A.447.447,0,0,0,1.5,1.7L-.936-4.77a.173.173,0,0,0-.179-.118h-.522a.188.188,0,0,0-.177.138L-4.29,1.71a.447.447,0,0,0-.019.1c0,.06.03.1.108.1h.582c.138,0,.177-.039.227-.168L-2.712-.1H-.158L.494,1.73c.049.147.1.177.266.177h.611c.108,0,.147-.039.147-.108M-.395-.785h-2.08l.809-2.238c.128-.365.2-.563.246-.721h.009c.041.138.11.356.227.7Zm7.249.266c0-1.271-.621-2.445-2.022-2.445a2.015,2.015,0,0,0-1.47.63v-.345c0-.138-.077-.177-.226-.177H2.762c-.128,0-.187.039-.187.177v6.5c0,.138.058.207.187.207H3.2c.127,0,.216-.039.216-.188V1.455a1.7,1.7,0,0,0,1.3.552A2.246,2.246,0,0,0,6.854-.519M5.977-.5c0,.878-.354,1.843-1.37,1.843A1.433,1.433,0,0,1,3.412.655V-1.663a1.662,1.662,0,0,1,1.252-.632c1.027,0,1.312.937,1.312,1.8m6.51-.02c0-1.271-.621-2.445-2.022-2.445A2.007,2.007,0,0,0,9-2.334v-.345c0-.138-.08-.177-.227-.177H8.394c-.128,0-.188.039-.188.177v6.5c0,.138.06.207.188.207h.434c.128,0,.216-.039.216-.188V1.455a1.7,1.7,0,0,0,1.3.552A2.247,2.247,0,0,0,12.486-.519m-.878.02c0,.878-.356,1.843-1.371,1.843A1.432,1.432,0,0,1,9.044.655V-1.663A1.66,1.66,0,0,1,10.3-2.295c1.027,0,1.312.937,1.312,1.8m3.077,2.2V-4.937c0-.128-.06-.168-.147-.168h-.05l-.494.069c-.118.02-.147.06-.147.2V1.71c0,.139.06.2.177.2h.484c.118,0,.177-.069.177-.207M17.339-4.02a.49.49,0,0,0-.514-.473.481.481,0,0,0-.5.473.481.481,0,0,0,.5.473.5.5,0,0,0,.514-.473M17.25,1.7V-2.658c0-.138-.06-.2-.188-.2h-.453a.173.173,0,0,0-.2.2V1.7a.18.18,0,0,0,.2.207h.453c.128,0,.188-.069.188-.207M22.911-.627V-.795a2.28,2.28,0,0,0-.563-1.627,1.818,1.818,0,0,0-1.342-.542,2.284,2.284,0,0,0-2.3,2.486,2.215,2.215,0,0,0,2.328,2.485,4.005,4.005,0,0,0,1.509-.285c.078-.041.119-.07.119-.128a.1.1,0,0,0-.011-.05l-.108-.365a.113.113,0,0,0-.119-.088.391.391,0,0,0-.1.02,3.5,3.5,0,0,1-1.185.207A1.543,1.543,0,0,1,19.587-.351h3.028c.256,0,.3-.05.3-.276m-.829-.3H19.607a1.409,1.409,0,0,1,1.361-1.39,1.12,1.12,0,0,1,1.114,1.252ZM28.217,1.7V-4.937c0-.118-.05-.168-.147-.168h-.05l-.483.069c-.128.02-.158.08-.158.208v2.406A1.768,1.768,0,0,0,26.1-2.975,2.256,2.256,0,0,0,23.946-.45c0,1.293.613,2.456,2.031,2.456a1.973,1.973,0,0,0,1.45-.641l.011.356c0,.128.06.187.207.187h.425c.088,0,.147-.078.147-.207M27.378.685a1.659,1.659,0,0,1-1.243.651c-.857,0-1.321-.779-1.321-1.825,0-1.085.513-1.815,1.4-1.815a1.4,1.4,0,0,1,1.163.691ZM36.393.063a2.033,2.033,0,0,0-1.34-1.823L34-2.323a1.161,1.161,0,0,1-.77-1.016c0-.661.641-.917,1.193-.917a3.4,3.4,0,0,1,1.254.285.253.253,0,0,0,.118.03.142.142,0,0,0,.138-.11l.149-.4a.284.284,0,0,0,.019-.088c0-.08-.058-.128-.157-.168a3.793,3.793,0,0,0-1.569-.3A1.9,1.9,0,0,0,32.28-3.26a1.821,1.821,0,0,0,1.085,1.6l1.254.671c.483.257.867.572.867,1.125,0,.778-.71,1.094-1.381,1.094A4.307,4.307,0,0,1,32.7.941a.309.309,0,0,0-.119-.019c-.069,0-.108.03-.138.118l-.128.444a.287.287,0,0,0-.009.089c0,.078.039.128.138.158a5.467,5.467,0,0,0,1.657.276A2.028,2.028,0,0,0,36.393.063m4.842,1.53a.548.548,0,0,0-.019-.11l-.089-.276c-.02-.069-.049-.1-.1-.1a.322.322,0,0,0-.078.019,2.719,2.719,0,0,1-1.1.237c-1.055,0-1.489-.868-1.489-1.875,0-1.1.591-1.8,1.53-1.8a2.457,2.457,0,0,1,1.025.246.178.178,0,0,0,.089.03c.058,0,.088-.049.107-.118l.08-.316a.232.232,0,0,0,.02-.078c0-.06-.03-.1-.1-.128a2.96,2.96,0,0,0-1.262-.285,2.285,2.285,0,0,0-2.357,2.5,2.182,2.182,0,0,0,2.3,2.475,3.162,3.162,0,0,0,1.332-.285c.089-.041.118-.07.118-.128M43.523-4.02a.489.489,0,0,0-.513-.473.481.481,0,0,0-.5.473.48.48,0,0,0,.5.473.494.494,0,0,0,.513-.473M43.434,1.7V-2.658c0-.138-.058-.2-.187-.2h-.453a.173.173,0,0,0-.2.2V1.7a.18.18,0,0,0,.2.207h.453c.128,0,.187-.069.187-.207M49.1-.627V-.795a2.274,2.274,0,0,0-.563-1.627,1.812,1.812,0,0,0-1.34-.542,2.284,2.284,0,0,0-2.3,2.486,2.215,2.215,0,0,0,2.328,2.485,4.01,4.01,0,0,0,1.509-.285c.078-.041.118-.07.118-.128a.1.1,0,0,0-.011-.05l-.107-.365a.115.115,0,0,0-.119-.088.388.388,0,0,0-.1.02,3.49,3.49,0,0,1-1.183.207A1.542,1.542,0,0,1,45.772-.351H48.8c.257,0,.3-.05.3-.276m-.828-.3H45.791a1.41,1.41,0,0,1,1.362-1.39,1.12,1.12,0,0,1,1.114,1.252ZM54.4,1.7V-1.2c0-1.075-.434-1.765-1.569-1.765a2.539,2.539,0,0,0-1.618.591l-.009-.306c0-.128-.069-.177-.188-.177h-.434c-.138,0-.187.06-.187.2V1.71a.174.174,0,0,0,.187.2h.464c.128,0,.188-.069.188-.207V-1.693A2.247,2.247,0,0,1,52.6-2.265c.79,0,.967.5.967,1.2V1.7c0,.138.058.207.187.207h.464c.138,0,.188-.069.188-.207m5.088-.108a.476.476,0,0,0-.02-.11l-.088-.276c-.02-.069-.05-.1-.1-.1a.322.322,0,0,0-.078.019,2.724,2.724,0,0,1-1.1.237c-1.055,0-1.489-.868-1.489-1.875,0-1.1.592-1.8,1.528-1.8a2.452,2.452,0,0,1,1.025.246.186.186,0,0,0,.089.03c.06,0,.089-.049.108-.118l.08-.316a.23.23,0,0,0,.019-.078.133.133,0,0,0-.1-.128A2.964,2.964,0,0,0,58.1-2.964a2.285,2.285,0,0,0-2.357,2.5,2.182,2.182,0,0,0,2.3,2.475,3.162,3.162,0,0,0,1.332-.285c.088-.041.118-.07.118-.128M64.55-.627V-.795a2.274,2.274,0,0,0-.563-1.627,1.815,1.815,0,0,0-1.34-.542,2.285,2.285,0,0,0-2.3,2.486,2.216,2.216,0,0,0,2.328,2.485,4,4,0,0,0,1.509-.285c.078-.041.119-.07.119-.128a.1.1,0,0,0-.011-.05l-.108-.365a.113.113,0,0,0-.118-.088.388.388,0,0,0-.1.02,3.49,3.49,0,0,1-1.183.207A1.543,1.543,0,0,1,61.226-.351h3.028c.257,0,.3-.05.3-.276m-.829-.3H61.246a1.41,1.41,0,0,1,1.362-1.39,1.119,1.119,0,0,1,1.113,1.252ZM68.762.538a1.379,1.379,0,0,0-.987-1.254l-.768-.325c-.414-.177-.611-.335-.611-.671s.285-.611.807-.611a2.928,2.928,0,0,1,1.036.237.317.317,0,0,0,.08.019c.049,0,.088-.03.108-.1l.108-.345a.335.335,0,0,0,.02-.078c0-.039-.03-.069-.089-.1a2.925,2.925,0,0,0-1.282-.276c-.868,0-1.657.444-1.657,1.312A1.355,1.355,0,0,0,66.542-.411l.66.257c.454.177.74.385.74.77,0,.464-.384.74-.956.74a3.351,3.351,0,0,1-1.173-.3.137.137,0,0,0-.061-.009c-.049,0-.088.039-.107.1l-.128.354a.116.116,0,0,0-.011.06.143.143,0,0,0,.1.128,3.506,3.506,0,0,0,1.351.315c1.045,0,1.806-.563,1.806-1.469m8.224,1.242V1.444c0-.108-.049-.127-.138-.127h-.069a.167.167,0,0,1-.168-.089,1.085,1.085,0,0,1-.049-.444V-2.668c0-.128-.06-.188-.179-.188h-.444c-.108,0-.187.049-.187.168l-.009.326a1.677,1.677,0,0,0-1.321-.6c-1.125,0-2.1.926-2.1,2.574,0,1.243.6,2.4,1.964,2.4a1.806,1.806,0,0,0,1.478-.829h.02a.646.646,0,0,0,.641.73h.414c.1,0,.147-.03.147-.128M75.724.31a1.48,1.48,0,0,1-1.312,1C73.7,1.306,73.2.635,73.2-.45c0-1.173.572-1.845,1.332-1.845a1.373,1.373,0,0,1,1.193.71Zm6.53,1.39V-1.2c0-1.075-.434-1.765-1.569-1.765a2.539,2.539,0,0,0-1.618.591l-.009-.306c0-.128-.069-.177-.188-.177h-.434c-.138,0-.187.06-.187.2V1.71a.174.174,0,0,0,.187.2H78.9c.128,0,.188-.069.188-.207V-1.693a2.243,2.243,0,0,1,1.361-.572c.79,0,.967.5.967,1.2V1.7c0,.138.058.207.187.207h.464c.138,0,.188-.069.188-.207m5.63,0V-4.937c0-.118-.049-.168-.147-.168h-.05l-.483.069c-.128.02-.158.08-.158.208v2.406a1.768,1.768,0,0,0-1.281-.553A2.256,2.256,0,0,0,83.615-.45c0,1.293.611,2.456,2.031,2.456a1.975,1.975,0,0,0,1.45-.641l.009.356c0,.128.06.187.208.187h.423c.089,0,.147-.078.147-.207M87.046.685a1.659,1.659,0,0,1-1.243.651c-.857,0-1.321-.779-1.321-1.825,0-1.085.514-1.815,1.4-1.815a1.4,1.4,0,0,1,1.163.691ZM97.363,1.8a.388.388,0,0,0-.02-.1L94.907-4.77a.172.172,0,0,0-.177-.118h-.522a.19.19,0,0,0-.179.138L91.554,1.71a.388.388,0,0,0-.02.1c0,.06.03.1.11.1h.582c.138,0,.177-.039.227-.168L93.131-.1h2.556l.651,1.835c.049.147.1.177.265.177h.611c.11,0,.149-.039.149-.108M95.449-.785h-2.08l.809-2.238c.127-.365.2-.563.246-.721h.009c.039.138.108.356.227.7Zm5.3-1.981v-.05c0-.06-.022-.108-.08-.118a1.611,1.611,0,0,0-.287-.03,1.391,1.391,0,0,0-1.133.621l-.011-.335c0-.128-.068-.177-.2-.177h-.426c-.118,0-.185.049-.185.2V1.7c0,.138.058.207.185.207h.464c.128,0,.188-.078.188-.207V-1.663a1.292,1.292,0,0,1,.986-.591,1.313,1.313,0,0,1,.287.03h.03a.1.1,0,0,0,.108-.1Zm3.737,4.438c0-.009-.011-.02-.011-.039l-.078-.315a.12.12,0,0,0-.118-.1.128.128,0,0,0-.06.009,2.147,2.147,0,0,1-.621.118.713.713,0,0,1-.544-.2A1.124,1.124,0,0,1,102.885.4V-2.265h1.154c.1,0,.149-.03.149-.127v-.337c0-.108-.05-.127-.138-.127h-1.164V-4.069c0-.108-.049-.177-.147-.177H102.7l-.483.069c-.128.019-.169.06-.169.2v1.124h-.563c-.088,0-.126.039-.126.138v.306c0,.128.019.147.147.147h.541V.32a1.818,1.818,0,0,0,.306,1.321,1.5,1.5,0,0,0,1.075.365,2.493,2.493,0,0,0,.918-.177c.078-.03.138-.08.138-.158M108.507.538a1.379,1.379,0,0,0-.986-1.254l-.771-.325c-.413-.177-.611-.335-.611-.671s.287-.611.81-.611a2.927,2.927,0,0,1,1.035.237.346.346,0,0,0,.08.019c.049,0,.088-.03.108-.1l.108-.345a.279.279,0,0,0,.02-.078c0-.039-.03-.069-.089-.1a2.921,2.921,0,0,0-1.282-.276c-.867,0-1.657.444-1.657,1.312a1.355,1.355,0,0,0,1.017,1.242l.66.257c.453.177.74.385.74.77,0,.464-.384.74-.958.74a3.365,3.365,0,0,1-1.174-.3.126.126,0,0,0-.058-.009.123.123,0,0,0-.108.1l-.128.354a.116.116,0,0,0-.011.06.143.143,0,0,0,.1.128,3.506,3.506,0,0,0,1.351.315c1.045,0,1.806-.563,1.806-1.469" transform="translate(4.309 5.105)"/>
        </g>
        <g id="Gruppe_230" data-name="Gruppe 230" transform="translate(0.129 93.902)">
          <path id="Pfad_124" data-name="Pfad 124" d="M1.437.123c.019-.168-.05-.246-.306-.246H-3.86c-.147,0-.216.058-.216.207V.668c0,.166.058.235.226.235h1.845V6.485c0,.177.03.218.207.218H-.93c.168,0,.207-.041.207-.229V.9H1.062C1.239.9,1.349.863,1.368.7ZM6.17,4.3V4.148a2.431,2.431,0,0,0-.582-1.765,1.936,1.936,0,0,0-1.44-.594A2.352,2.352,0,0,0,1.7,4.3,2.312,2.312,0,0,0,4.169,6.822a4.388,4.388,0,0,0,1.657-.316c.118-.049.158-.1.158-.166a.832.832,0,0,0-.02-.122l-.138-.5A.136.136,0,0,0,5.688,5.6a.388.388,0,0,0-.108.028,3.545,3.545,0,0,1-1.213.235A1.364,1.364,0,0,1,2.956,4.582h2.89c.246,0,.325-.049.325-.285M5,3.8H2.976a1.148,1.148,0,0,1,1.1-1.1A.928.928,0,0,1,5,3.694Zm5.966,2.563a.645.645,0,0,0-.03-.166l-.127-.434c-.02-.069-.06-.118-.119-.118a.34.34,0,0,0-.1.028,2.493,2.493,0,0,1-1.036.218c-.848,0-1.282-.652-1.282-1.6,0-.968.484-1.569,1.332-1.569a2.437,2.437,0,0,1,.947.218.331.331,0,0,0,.108.039c.06,0,.1-.05.119-.139l.127-.522a.457.457,0,0,0,.02-.118c0-.08-.039-.1-.118-.139a3.259,3.259,0,0,0-1.321-.277A2.343,2.343,0,0,0,7.039,4.356,2.209,2.209,0,0,0,9.4,6.822a3.21,3.21,0,0,0,1.43-.3c.089-.038.138-.077.138-.157m5.414.139V3.557c0-1.066-.453-1.768-1.558-1.768a2.562,2.562,0,0,0-1.558.534V-.152c0-.139-.06-.188-.168-.188a.521.521,0,0,0-.128.011l-.68.087c-.138.022-.216.07-.216.248V6.523c0,.128.039.18.157.18h.848c.149,0,.188-.051.188-.2V3.311a2,2,0,0,1,1.183-.476c.592,0,.74.4.74.928V6.505c0,.157.03.2.168.2h.868c.128,0,.157-.051.157-.2m5.829-.06V3.557c0-1.077-.453-1.768-1.558-1.768a2.579,2.579,0,0,0-1.6.573l-.009-.257c-.009-.146-.1-.188-.237-.188h-.641a.216.216,0,0,0-.246.248v4.3a.214.214,0,0,0,.237.238h.72c.168,0,.237-.08.237-.246V3.311a1.956,1.956,0,0,1,1.164-.476c.6,0,.749.385.749.928V6.446c0,.168.06.257.237.257h.71c.177,0,.237-.089.237-.257M25.077.668a.627.627,0,0,0-.661-.622.637.637,0,0,0-.669.629.631.631,0,0,0,.669.611.638.638,0,0,0,.661-.618m-.06,5.789V2.146c0-.18-.088-.229-.246-.229h-.69c-.158,0-.257.06-.257.229v4.31c0,.177.078.246.257.246h.69c.168,0,.246-.069.246-.246m5.593.128a.361.361,0,0,0-.069-.188l-1.6-2.5,1.412-1.774a.2.2,0,0,0,.039-.108c0-.058-.05-.1-.128-.1h-.878a.275.275,0,0,0-.266.139L27.828,3.832h-.019V-.123c0-.168-.069-.226-.188-.226-.028,0-.049.009-.078.009l-.72.1c-.149.022-.207.08-.207.237v6.47a.211.211,0,0,0,.226.238h.74c.158,0,.227-.08.227-.246V4.523l.108-.1L29.18,6.495a.409.409,0,0,0,.394.208h.848c.1,0,.188-.031.188-.118m9.448-.594c0-.058-.03-.087-.138-.118A3,3,0,0,1,38.677,5.2a4.3,4.3,0,0,0,.976-2.663V2.52c0-.119-.041-.157-.179-.157h-.591c-.128,0-.177.038-.187.188a3.619,3.619,0,0,1-.682,1.961L36.547,2.835A2.161,2.161,0,0,0,37.692,1.22,1.538,1.538,0,0,0,36-.252a1.645,1.645,0,0,0-1.766,1.5,1.757,1.757,0,0,0,.542,1.212l.268.306A2.592,2.592,0,0,0,33.5,4.828a2.053,2.053,0,0,0,2.219,1.994,3.3,3.3,0,0,0,2.21-.879,3.121,3.121,0,0,0,1.657.837c.028,0,.069.011.1.011a.166.166,0,0,0,.187-.146l.168-.553a.468.468,0,0,0,.02-.1M36.635,1.237c0,.348-.365.711-.66.917l-.227-.264a1.117,1.117,0,0,1-.326-.682.574.574,0,0,1,.6-.572.588.588,0,0,1,.611.6m.622,4.045a2.006,2.006,0,0,1-1.381.552,1.1,1.1,0,0,1-1.164-1.1,1.756,1.756,0,0,1,.918-1.3ZM49.043,6.545a.306.306,0,0,0-.02-.128L46.607.054a.267.267,0,0,0-.277-.177h-.788a.267.267,0,0,0-.266.2L42.869,6.465a.231.231,0,0,0-.02.11c0,.077.039.128.138.128h.878a.251.251,0,0,0,.266-.208l.513-1.478h2.5l.513,1.449a.3.3,0,0,0,.337.238h.876c.128,0,.179-.058.179-.158M46.8,4.057H44.98l.7-2.069c.1-.276.158-.483.207-.651h.02c.049.157.108.365.2.64Zm5.937-2.1a.112.112,0,0,0-.1-.128,1.4,1.4,0,0,0-.276-.042,1.418,1.418,0,0,0-1.193.633l-.011-.316c0-.139-.088-.188-.246-.188h-.632c-.147,0-.246.049-.246.248V6.457c0,.166.08.246.237.246H51c.166,0,.237-.089.237-.246V3.318a1.284,1.284,0,0,1,.947-.472,1.121,1.121,0,0,1,.265.031h.041a.129.129,0,0,0,.138-.128l.108-.7a.27.27,0,0,0,.009-.087m4.6,4.406a.644.644,0,0,0-.03-.166l-.127-.434c-.02-.069-.06-.118-.119-.118a.34.34,0,0,0-.1.028,2.491,2.491,0,0,1-1.035.218c-.849,0-1.282-.652-1.282-1.6,0-.968.483-1.569,1.331-1.569a2.431,2.431,0,0,1,.947.218.331.331,0,0,0,.108.039c.06,0,.1-.05.119-.139l.127-.522a.458.458,0,0,0,.02-.118c0-.08-.039-.1-.118-.139a3.256,3.256,0,0,0-1.323-.277,2.343,2.343,0,0,0-2.445,2.567,2.209,2.209,0,0,0,2.357,2.466,3.21,3.21,0,0,0,1.43-.3c.089-.038.138-.077.138-.157m5.415.139V3.557c0-1.066-.454-1.768-1.559-1.768a2.565,2.565,0,0,0-1.558.534V-.152c0-.139-.058-.188-.168-.188a.527.527,0,0,0-.128.011l-.679.087c-.138.022-.218.07-.218.248V6.523c0,.128.039.18.158.18h.848c.147,0,.187-.051.187-.2V3.311a2,2,0,0,1,1.183-.476c.592,0,.74.4.74.928V6.505c0,.157.03.2.169.2h.867c.128,0,.158-.051.158-.2M65.62.668a.626.626,0,0,0-.66-.622.638.638,0,0,0-.671.629A.668.668,0,0,0,65.62.668m-.058,5.789V2.146c0-.18-.089-.229-.248-.229h-.69c-.157,0-.256.06-.256.229v4.31c0,.177.078.246.256.246h.69c.169,0,.248-.069.248-.246m4.575-.051a.163.163,0,0,0-.009-.06l-.1-.492c-.019-.077-.059-.119-.127-.119a.373.373,0,0,0-.1.022,1.983,1.983,0,0,1-.632.118.513.513,0,0,1-.464-.208,1.18,1.18,0,0,1-.128-.671V2.737h1.1a.178.178,0,0,0,.2-.187V2.085c0-.126-.069-.168-.188-.168H68.58V.734c0-.146-.06-.216-.187-.216h-.05l-.71.088c-.157.02-.246.069-.246.239V1.918h-.5c-.119,0-.177.08-.177.2v.375c0,.208.03.246.216.246h.464v2.2c0,.721.009,1.124.315,1.469a1.526,1.526,0,0,0,1.183.417,2.971,2.971,0,0,0,1.1-.229c.1-.039.147-.088.147-.188M75.384,4.3V4.148A2.425,2.425,0,0,0,74.8,2.383a1.932,1.932,0,0,0-1.439-.594A2.353,2.353,0,0,0,70.917,4.3a2.312,2.312,0,0,0,2.466,2.525,4.4,4.4,0,0,0,1.658-.316c.118-.049.157-.1.157-.166a.8.8,0,0,0-.019-.122l-.138-.5A.137.137,0,0,0,74.9,5.6a.4.4,0,0,0-.11.028,3.531,3.531,0,0,1-1.212.235,1.366,1.366,0,0,1-1.412-1.281h2.89c.248,0,.325-.049.325-.285M74.211,3.8H72.189a1.15,1.15,0,0,1,1.1-1.1.927.927,0,0,1,.917.987Zm6.362,2.782A.351.351,0,0,0,80.5,6.4l-1.6-2.5,1.411-1.774a.186.186,0,0,0,.039-.108c0-.058-.049-.1-.128-.1h-.878a.278.278,0,0,0-.266.139L77.791,3.832h-.019V-.123c0-.168-.07-.226-.188-.226-.03,0-.049.009-.078.009l-.721.1c-.147.022-.207.08-.207.237v6.47a.212.212,0,0,0,.227.238h.74c.157,0,.227-.08.227-.246V4.523l.108-.1,1.262,2.069a.412.412,0,0,0,.395.208h.848c.1,0,.188-.031.188-.118m4.052-.18a.163.163,0,0,0-.009-.06l-.1-.492c-.02-.077-.06-.119-.13-.119a.425.425,0,0,0-.1.022,1.959,1.959,0,0,1-.63.118.513.513,0,0,1-.464-.208,1.18,1.18,0,0,1-.128-.671V2.737h1.1a.179.179,0,0,0,.2-.187V2.085c0-.126-.069-.168-.187-.168H83.067V.734c0-.146-.058-.216-.187-.216h-.049l-.71.088c-.158.02-.247.069-.247.239V1.918h-.5c-.118,0-.177.08-.177.2v.375c0,.208.03.246.218.246h.463v2.2c0,.721.009,1.124.316,1.469a1.523,1.523,0,0,0,1.182.417,2.971,2.971,0,0,0,1.1-.229c.1-.039.147-.088.147-.188m5.317.02V2.146c0-.18-.088-.229-.246-.229H89c-.157,0-.246.06-.246.229V5.291a1.9,1.9,0,0,1-1.144.475c-.592,0-.73-.375-.73-.917v-2.7c0-.18-.089-.229-.248-.229h-.688c-.158,0-.257.06-.257.229V5.054c0,1.066.453,1.768,1.558,1.768a2.494,2.494,0,0,0,1.569-.563l.008.246a.216.216,0,0,0,.238.2h.63c.2,0,.257-.069.257-.277M94.174,1.96a.112.112,0,0,0-.1-.128,1.33,1.33,0,0,0-1.47.591L92.6,2.106c0-.139-.089-.188-.246-.188h-.633c-.147,0-.246.049-.246.248V6.457c0,.166.08.246.238.246h.718c.169,0,.238-.089.238-.246V3.318a1.284,1.284,0,0,1,.947-.472,1.113,1.113,0,0,1,.265.031h.041a.126.126,0,0,0,.137-.128l.11-.7a.238.238,0,0,0,.011-.087" transform="translate(4.076 0.349)"/>
        </g>
      </g>
    </g>
  </g>
</svg>
